# xmcd
#
# Track frame offsets:
#	150
#	10500
#	24612
#	35735
#	49194
#	61036
#	71399
#	84179
#	99173
#	112151
#	125798
#	138715
#	150662
#	163413
#	176445
#	188946
#	202480
#	215428
#	226797
#	237942
#	251295
#	262741
#	275034
#	285508
#	297303
#
# Disc length: 4118
#
# Revision: 1
# Processed by: cddbd v1.5.1PL0 Copyright (c) Steve Scherf et al.
# Submitted via: EasyCDDAExtractor 4.6.0.1
# Normalized: r0:TDELIM( - )
#
DISCID=6b101419
DTITLE=Various Artist - Forever DooWop  Vol 06
DYEAR=1900
DGENRE=Blues
TTITLE0=Starfires - Love Is Here To Stay
TTITLE1=Five Satins - In The Still Of The Night
TTITLE2=Regents - Over The Rainbow
TTITLE3=Cashmeres - Don't Let It Happen Again
TTITLE4=Flairs - I Had A Love
TTITLE5=Five Discs - I Don't Know What To Do
TTITLE6=Tops - An Innocent Kiss
TTITLE7=Five Crowns - You Could Be My Love
TTITLE8=Rays - Magic Moon
TTITLE9=Startones - I Love You So Dearly
TTITLE10=Charms (Otis Williams and the) - Heaven Only Knows
TTITLE11=Flamingos - You, Me And The Sea
TTITLE12=Paramounts - In A Dream
TTITLE13=Coasters - Zing Went The Strings Of My Heart
TTITLE14=Friends (Dante and His) - Something Happens
TTITLE15=Penguins - Earth Angel
TTITLE16=Kool Gents - This Is The Night
TTITLE17=Ocapellos - The Stars
TTITLE18=Five Satins - Our Anniversary
TTITLE19=Flamingos - Lovers Never Say Goodbye
TTITLE20=Castroes - Dearest Darling
TTITLE21=Terry George - My Love, My Dreamy Eyes
TTITLE22=Dubs - Could This Be Magic
TTITLE23=Volumes - I Love You
TTITLE24=Cadillacs - You Are
EXTD=
EXTT0=
EXTT1=
EXTT2=
EXTT3=
EXTT4=
EXTT5=
EXTT6=
EXTT7=
EXTT8=
EXTT9=
EXTT10=
EXTT11=
EXTT12=
EXTT13=
EXTT14=
EXTT15=
EXTT16=
EXTT17=
EXTT18=
EXTT19=
EXTT20=
EXTT21=
EXTT22=
EXTT23=
EXTT24=
PLAYORDER=
